<svg xmlns="http://www.w3.org/2000/svg" width="1006" height="456" viewBox="0 0 1006 456">
<rect width="100%" height="100%" fill="#f7f5ef" />
<text x="32" y="46" font-family="Arial, sans-serif" font-size="28" font-weight="700" fill="#1f2933">ultralytics Metrics Heatmap</text>
<text x="32" y="74" font-family="Arial, sans-serif" font-size="14" fill="#52606d">30 labeled images • IoU threshold 0.50 • ultralytics</text>
<rect x="32" y="116" width="190" height="60" fill="#dbe2ea" rx="10" />
<text x="48" y="152" font-family="Arial, sans-serif" font-size="16" font-weight="700" fill="#1f2933">Class</text>
<rect x="222" y="116" width="94" height="60" fill="#dbe2ea" rx="10" />
<text x="269.0" y="138" text-anchor="middle" font-family="Arial, sans-serif" font-size="13" font-weight="700" fill="#1f2933">Precision</text>
<text x="269.0" y="158" text-anchor="middle" font-family="Arial, sans-serif" font-size="10" fill="#52606d">higher better</text>
<rect x="316" y="116" width="94" height="60" fill="#dbe2ea" rx="10" />
<text x="363.0" y="138" text-anchor="middle" font-family="Arial, sans-serif" font-size="13" font-weight="700" fill="#1f2933">Recall</text>
<text x="363.0" y="158" text-anchor="middle" font-family="Arial, sans-serif" font-size="10" fill="#52606d">higher better</text>
<rect x="410" y="116" width="94" height="60" fill="#dbe2ea" rx="10" />
<text x="457.0" y="138" text-anchor="middle" font-family="Arial, sans-serif" font-size="13" font-weight="700" fill="#1f2933">Mean IoU</text>
<text x="457.0" y="158" text-anchor="middle" font-family="Arial, sans-serif" font-size="10" fill="#52606d">higher better</text>
<rect x="504" y="116" width="94" height="60" fill="#dbe2ea" rx="10" />
<text x="551.0" y="138" text-anchor="middle" font-family="Arial, sans-serif" font-size="13" font-weight="700" fill="#1f2933">GT</text>
<text x="551.0" y="158" text-anchor="middle" font-family="Arial, sans-serif" font-size="10" fill="#52606d">count</text>
<rect x="598" y="116" width="94" height="60" fill="#dbe2ea" rx="10" />
<text x="645.0" y="138" text-anchor="middle" font-family="Arial, sans-serif" font-size="13" font-weight="700" fill="#1f2933">Pred</text>
<text x="645.0" y="158" text-anchor="middle" font-family="Arial, sans-serif" font-size="10" fill="#52606d">count</text>
<rect x="692" y="116" width="94" height="60" fill="#dbe2ea" rx="10" />
<text x="739.0" y="138" text-anchor="middle" font-family="Arial, sans-serif" font-size="13" font-weight="700" fill="#1f2933">TP</text>
<text x="739.0" y="158" text-anchor="middle" font-family="Arial, sans-serif" font-size="10" fill="#52606d">count</text>
<rect x="786" y="116" width="94" height="60" fill="#dbe2ea" rx="10" />
<text x="833.0" y="138" text-anchor="middle" font-family="Arial, sans-serif" font-size="13" font-weight="700" fill="#1f2933">FP</text>
<text x="833.0" y="158" text-anchor="middle" font-family="Arial, sans-serif" font-size="10" fill="#52606d">lower better</text>
<rect x="880" y="116" width="94" height="60" fill="#dbe2ea" rx="10" />
<text x="927.0" y="138" text-anchor="middle" font-family="Arial, sans-serif" font-size="13" font-weight="700" fill="#1f2933">FN</text>
<text x="927.0" y="158" text-anchor="middle" font-family="Arial, sans-serif" font-size="10" fill="#52606d">lower better</text>
<rect x="32" y="176" width="190" height="60" fill="#ffffff" stroke="#d9e2ec" rx="10" />
<text x="48" y="204" font-family="Arial, sans-serif" font-size="16" font-weight="700" fill="#102a43">guitar</text>
<text x="48" y="222" font-family="Arial, sans-serif" font-size="11" fill="#52606d">TP rate 0.11 • FP rate 0.40 • FN rate 0.89</text>
<rect x="222" y="176" width="94" height="60" fill="rgb(153,186,153)" stroke="#ffffff" rx="10" />
<text x="269.0" y="204" text-anchor="middle" font-family="Arial, sans-serif" font-size="18" font-weight="700" fill="#102a43">0.600</text>
<text x="269.0" y="223" text-anchor="middle" font-family="Arial, sans-serif" font-size="10" fill="#243b53">60.0%</text>
<rect x="316" y="176" width="94" height="60" fill="rgb(231,211,197)" stroke="#ffffff" rx="10" />
<text x="363.0" y="204" text-anchor="middle" font-family="Arial, sans-serif" font-size="18" font-weight="700" fill="#102a43">0.107</text>
<text x="363.0" y="223" text-anchor="middle" font-family="Arial, sans-serif" font-size="10" fill="#243b53">10.7%</text>
<rect x="410" y="176" width="94" height="60" fill="rgb(128,178,139)" stroke="#ffffff" rx="10" />
<text x="457.0" y="204" text-anchor="middle" font-family="Arial, sans-serif" font-size="18" font-weight="700" fill="#102a43">0.761</text>
<text x="457.0" y="223" text-anchor="middle" font-family="Arial, sans-serif" font-size="10" fill="#243b53">76.1%</text>
<rect x="504" y="176" width="94" height="60" fill="rgb(241,244,248)" stroke="#ffffff" rx="10" />
<text x="551.0" y="204" text-anchor="middle" font-family="Arial, sans-serif" font-size="18" font-weight="700" fill="#102a43">28</text>
<text x="551.0" y="223" text-anchor="middle" font-family="Arial, sans-serif" font-size="10" fill="#243b53">count</text>
<rect x="598" y="176" width="94" height="60" fill="rgb(241,244,248)" stroke="#ffffff" rx="10" />
<text x="645.0" y="204" text-anchor="middle" font-family="Arial, sans-serif" font-size="18" font-weight="700" fill="#102a43">5</text>
<text x="645.0" y="223" text-anchor="middle" font-family="Arial, sans-serif" font-size="10" fill="#243b53">count</text>
<rect x="692" y="176" width="94" height="60" fill="rgb(224,232,242)" stroke="#ffffff" rx="10" />
<text x="739.0" y="204" text-anchor="middle" font-family="Arial, sans-serif" font-size="18" font-weight="700" fill="#102a43">3</text>
<text x="739.0" y="223" text-anchor="middle" font-family="Arial, sans-serif" font-size="10" fill="#243b53">0.11</text>
<rect x="786" y="176" width="94" height="60" fill="rgb(146,177,215)" stroke="#ffffff" rx="10" />
<text x="833.0" y="204" text-anchor="middle" font-family="Arial, sans-serif" font-size="18" font-weight="700" fill="#102a43">2</text>
<text x="833.0" y="223" text-anchor="middle" font-family="Arial, sans-serif" font-size="10" fill="#243b53">0.40</text>
<rect x="880" y="176" width="94" height="60" fill="rgb(224,232,242)" stroke="#ffffff" rx="10" />
<text x="927.0" y="204" text-anchor="middle" font-family="Arial, sans-serif" font-size="18" font-weight="700" fill="#102a43">25</text>
<text x="927.0" y="223" text-anchor="middle" font-family="Arial, sans-serif" font-size="10" fill="#243b53">0.89</text>
<rect x="32" y="236" width="190" height="60" fill="#ffffff" stroke="#d9e2ec" rx="10" />
<text x="48" y="264" font-family="Arial, sans-serif" font-size="16" font-weight="700" fill="#102a43">person</text>
<text x="48" y="282" font-family="Arial, sans-serif" font-size="11" fill="#52606d">TP rate 0.26 • FP rate 0.00 • FN rate 0.74</text>
<rect x="222" y="236" width="94" height="60" fill="rgb(90,166,118)" stroke="#ffffff" rx="10" />
<text x="269.0" y="264" text-anchor="middle" font-family="Arial, sans-serif" font-size="18" font-weight="700" fill="#102a43">1.000</text>
<text x="269.0" y="283" text-anchor="middle" font-family="Arial, sans-serif" font-size="10" fill="#243b53">100.0%</text>
<rect x="316" y="236" width="94" height="60" fill="rgb(207,203,183)" stroke="#ffffff" rx="10" />
<text x="363.0" y="264" text-anchor="middle" font-family="Arial, sans-serif" font-size="18" font-weight="700" fill="#102a43">0.256</text>
<text x="363.0" y="283" text-anchor="middle" font-family="Arial, sans-serif" font-size="10" fill="#243b53">25.6%</text>
<rect x="410" y="236" width="94" height="60" fill="rgb(101,169,124)" stroke="#ffffff" rx="10" />
<text x="457.0" y="264" text-anchor="middle" font-family="Arial, sans-serif" font-size="18" font-weight="700" fill="#102a43">0.932</text>
<text x="457.0" y="283" text-anchor="middle" font-family="Arial, sans-serif" font-size="10" fill="#243b53">93.2%</text>
<rect x="504" y="236" width="94" height="60" fill="rgb(241,244,248)" stroke="#ffffff" rx="10" />
<text x="551.0" y="264" text-anchor="middle" font-family="Arial, sans-serif" font-size="18" font-weight="700" fill="#102a43">39</text>
<text x="551.0" y="283" text-anchor="middle" font-family="Arial, sans-serif" font-size="10" fill="#243b53">count</text>
<rect x="598" y="236" width="94" height="60" fill="rgb(241,244,248)" stroke="#ffffff" rx="10" />
<text x="645.0" y="264" text-anchor="middle" font-family="Arial, sans-serif" font-size="18" font-weight="700" fill="#102a43">10</text>
<text x="645.0" y="283" text-anchor="middle" font-family="Arial, sans-serif" font-size="10" fill="#243b53">count</text>
<rect x="692" y="236" width="94" height="60" fill="rgb(200,215,234)" stroke="#ffffff" rx="10" />
<text x="739.0" y="264" text-anchor="middle" font-family="Arial, sans-serif" font-size="18" font-weight="700" fill="#102a43">10</text>
<text x="739.0" y="283" text-anchor="middle" font-family="Arial, sans-serif" font-size="10" fill="#243b53">0.26</text>
<rect x="786" y="236" width="94" height="60" fill="rgb(82,132,193)" stroke="#ffffff" rx="10" />
<text x="833.0" y="264" text-anchor="middle" font-family="Arial, sans-serif" font-size="18" font-weight="700" fill="#102a43">0</text>
<text x="833.0" y="283" text-anchor="middle" font-family="Arial, sans-serif" font-size="10" fill="#243b53">0.00</text>
<rect x="880" y="236" width="94" height="60" fill="rgb(200,215,234)" stroke="#ffffff" rx="10" />
<text x="927.0" y="264" text-anchor="middle" font-family="Arial, sans-serif" font-size="18" font-weight="700" fill="#102a43">29</text>
<text x="927.0" y="283" text-anchor="middle" font-family="Arial, sans-serif" font-size="10" fill="#243b53">0.74</text>
<rect x="32" y="296" width="190" height="60" fill="#ffffff" stroke="#d9e2ec" rx="10" />
<text x="48" y="324" font-family="Arial, sans-serif" font-size="16" font-weight="700" fill="#102a43">overall</text>
<text x="48" y="342" font-family="Arial, sans-serif" font-size="11" fill="#52606d">TP rate 0.19 • FP rate 0.13 • FN rate 0.81</text>
<rect x="222" y="296" width="94" height="60" fill="rgb(111,173,130)" stroke="#ffffff" rx="10" />
<text x="269.0" y="324" text-anchor="middle" font-family="Arial, sans-serif" font-size="18" font-weight="700" fill="#102a43">0.867</text>
<text x="269.0" y="343" text-anchor="middle" font-family="Arial, sans-serif" font-size="10" fill="#243b53">86.7%</text>
<rect x="316" y="296" width="94" height="60" fill="rgb(217,206,189)" stroke="#ffffff" rx="10" />
<text x="363.0" y="324" text-anchor="middle" font-family="Arial, sans-serif" font-size="18" font-weight="700" fill="#102a43">0.194</text>
<text x="363.0" y="343" text-anchor="middle" font-family="Arial, sans-serif" font-size="10" fill="#243b53">19.4%</text>
<rect x="410" y="296" width="94" height="60" fill="rgb(107,171,127)" stroke="#ffffff" rx="10" />
<text x="457.0" y="324" text-anchor="middle" font-family="Arial, sans-serif" font-size="18" font-weight="700" fill="#102a43">0.893</text>
<text x="457.0" y="343" text-anchor="middle" font-family="Arial, sans-serif" font-size="10" fill="#243b53">89.3%</text>
<rect x="504" y="296" width="94" height="60" fill="rgb(241,244,248)" stroke="#ffffff" rx="10" />
<text x="551.0" y="324" text-anchor="middle" font-family="Arial, sans-serif" font-size="18" font-weight="700" fill="#102a43">67</text>
<text x="551.0" y="343" text-anchor="middle" font-family="Arial, sans-serif" font-size="10" fill="#243b53">count</text>
<rect x="598" y="296" width="94" height="60" fill="rgb(241,244,248)" stroke="#ffffff" rx="10" />
<text x="645.0" y="324" text-anchor="middle" font-family="Arial, sans-serif" font-size="18" font-weight="700" fill="#102a43">15</text>
<text x="645.0" y="343" text-anchor="middle" font-family="Arial, sans-serif" font-size="10" fill="#243b53">count</text>
<rect x="692" y="296" width="94" height="60" fill="rgb(210,222,237)" stroke="#ffffff" rx="10" />
<text x="739.0" y="324" text-anchor="middle" font-family="Arial, sans-serif" font-size="18" font-weight="700" fill="#102a43">13</text>
<text x="739.0" y="343" text-anchor="middle" font-family="Arial, sans-serif" font-size="10" fill="#243b53">0.19</text>
<rect x="786" y="296" width="94" height="60" fill="rgb(103,147,200)" stroke="#ffffff" rx="10" />
<text x="833.0" y="324" text-anchor="middle" font-family="Arial, sans-serif" font-size="18" font-weight="700" fill="#102a43">2</text>
<text x="833.0" y="343" text-anchor="middle" font-family="Arial, sans-serif" font-size="10" fill="#243b53">0.13</text>
<rect x="880" y="296" width="94" height="60" fill="rgb(210,222,237)" stroke="#ffffff" rx="10" />
<text x="927.0" y="324" text-anchor="middle" font-family="Arial, sans-serif" font-size="18" font-weight="700" fill="#102a43">54</text>
<text x="927.0" y="343" text-anchor="middle" font-family="Arial, sans-serif" font-size="10" fill="#243b53">0.81</text>
<text x="32" y="422" font-family="Arial, sans-serif" font-size="12" fill="#52606d">Source: coco.json vs ultralytics_predictions.json</text>
</svg>